<svg xmlns="http://www.w3.org/2000/svg" width="1024" height="1024" viewBox="160 165 670 670">
<g>
<path d="M 624.31 775.75 C620.90,779.96 620.80,780.00 614.68,779.88 C604.49,779.68 598.74,778.18 553.00,763.73 C550.65,762.99 537.34,762.70 512.50,762.85 C468.39,763.12 463.64,762.64 430.00,754.54 C409.87,749.70 375.88,734.23 355.06,720.45 C333.91,706.45 314.40,689.54 301.50,674.03 C298.20,670.06 293.70,664.65 291.50,662.01 C279.95,648.14 270.98,632.84 255.17,600.04 C253.89,597.39 252.54,596.30 249.42,595.40 C240.66,592.88 231.00,586.25 223.92,577.90 C202.44,552.60 199.20,515.11 214.30,466.50 C215.66,462.10 217.02,457.60 217.30,456.50 C217.59,455.40 218.72,451.12 219.81,447.00 C220.91,442.88 222.10,436.80 222.46,433.50 C223.34,425.46 223.75,424.30 225.90,423.74 C226.96,423.46 227.95,422.04 228.25,420.38 C229.51,413.25 232.35,400.98 234.00,395.50 C234.99,392.20 236.79,386.12 237.99,382.00 C240.91,372.00 243.95,362.90 245.08,360.76 C245.59,359.81 246.00,358.15 246.00,357.07 C246.00,356.00 246.42,354.86 246.92,354.55 C247.43,354.23 248.15,352.52 248.53,350.74 C248.91,348.96 250.46,343.67 251.97,339.00 C255.16,329.17 257.34,321.85 259.52,313.75 C261.17,307.58 263.07,306.39 265.12,310.22 C267.07,313.87 267.38,343.44 265.64,359.48 C264.81,367.17 264.33,373.67 264.59,373.92 C265.44,374.77 267.83,371.54 273.02,362.50 C299.21,316.89 345.84,276.48 396.50,255.48 C431.49,240.98 461.54,235.00 499.47,235.00 C533.73,235.00 557.00,238.98 590.00,250.50 C608.29,256.87 630.00,267.23 630.00,269.57 C630.00,272.31 627.83,271.96 620.78,268.10 C605.10,259.52 584.53,251.82 563.19,246.54 C534.12,239.35 505.19,236.91 479.00,239.44 C450.08,242.24 430.86,246.64 404.20,256.60 C363.93,271.64 320.08,304.21 294.47,338.11 C293.39,339.54 290.68,343.14 288.45,346.11 C282.88,353.52 271.32,372.74 266.26,383.00 C262.26,391.11 261.44,394.25 258.01,414.50 C257.55,417.25 256.21,424.90 255.05,431.50 C253.88,438.10 252.49,446.20 251.95,449.50 C248.70,469.55 244.04,492.45 241.56,500.50 C239.93,505.81 239.60,517.87 240.90,524.50 C241.97,529.91 242.59,527.69 243.84,514.00 C244.42,507.67 245.52,499.24 246.29,495.26 C247.06,491.29 247.48,487.81 247.21,487.54 C246.94,487.27 247.21,486.46 247.81,485.73 C248.41,485.01 250.51,479.48 252.48,473.46 C254.44,467.43 256.94,460.59 258.02,458.26 C259.11,455.93 260.00,453.82 260.00,453.57 C260.00,453.32 264.00,446.20 268.89,437.74 C273.78,429.29 279.02,419.92 280.53,416.93 C283.89,410.31 288.00,398.46 288.00,395.41 C288.00,389.36 292.28,387.66 293.40,393.25 C295.71,404.70 294.83,436.10 291.88,447.50 C291.31,449.70 290.37,453.30 289.79,455.50 C286.55,467.90 281.94,479.21 271.62,500.14 C255.01,533.79 252.57,542.30 252.52,566.50 L 252.50 581.50 L 257.34 593.50 C260.00,600.10 264.79,610.67 267.97,617.00 C274.41,629.77 288.61,652.86 292.89,657.50 C294.41,659.15 297.19,662.53 299.06,665.00 C300.94,667.47 305.63,672.88 309.49,677.00 C342.58,712.42 383.11,737.19 429.00,750.05 C433.12,751.20 437.62,752.56 439.00,753.06 C440.38,753.56 444.65,754.41 448.50,754.95 C452.35,755.49 460.23,756.66 466.00,757.56 C485.53,760.58 525.71,760.65 524.72,757.66 C524.47,756.89 519.31,756.28 509.32,755.85 C492.73,755.14 485.25,753.91 478.97,750.87 C475.07,748.99 474.84,748.65 475.44,745.68 C475.80,743.93 476.20,740.84 476.32,738.80 C476.45,736.68 477.46,734.13 478.68,732.80 C481.68,729.56 485.29,722.28 484.51,721.02 C484.16,720.44 482.09,719.07 479.93,717.97 C477.53,716.74 476.00,715.25 476.00,714.14 C476.00,713.13 478.27,709.72 481.04,706.55 C484.61,702.48 485.79,700.45 485.08,699.60 C483.07,697.17 491.03,688.00 514.42,665.81 C533.46,647.74 542.59,640.00 544.87,640.00 C545.63,640.00 548.01,642.01 550.17,644.46 C552.33,646.91 558.34,651.88 563.53,655.49 C573.55,662.48 584.47,672.73 588.70,679.12 C590.11,681.26 591.86,683.00 592.60,683.00 C594.16,683.00 602.29,679.86 609.44,676.50 C614.16,674.27 636.97,665.00 637.71,665.00 C637.90,665.00 638.48,666.12 639.00,667.50 C639.70,669.34 640.68,670.00 642.73,670.00 C644.46,670.00 646.01,670.78 646.80,672.06 C647.90,673.81 647.78,674.62 645.97,677.54 C643.53,681.50 644.02,682.98 647.81,683.06 C649.57,683.09 651.33,684.16 652.88,686.12 C655.03,688.84 655.13,689.39 653.91,691.68 C652.68,693.97 652.76,694.39 654.77,696.02 C656.00,697.01 657.00,698.52 657.00,699.38 C657.00,700.23 657.92,701.42 659.04,702.02 C660.78,702.95 661.99,702.38 667.42,698.06 C677.23,690.26 698.87,667.31 708.22,654.78 C716.56,643.62 726.90,627.11 732.82,615.50 C741.24,598.98 750.77,573.21 753.01,560.87 C753.65,557.36 754.53,553.60 754.97,552.50 C755.41,551.40 756.61,545.33 757.64,539.00 C759.17,529.53 759.49,522.28 759.42,498.00 C759.33,466.94 758.87,462.49 753.10,437.00 C749.78,422.38 742.63,402.32 735.40,387.34 C731.87,380.05 731.07,377.54 731.97,376.65 C732.87,375.78 733.67,376.16 735.32,378.24 C738.23,381.89 749.21,408.24 752.52,419.50 C758.29,439.16 759.27,443.69 762.63,466.50 C764.67,480.33 765.03,518.14 763.23,529.00 C762.54,533.12 761.48,539.65 760.87,543.50 C758.34,559.40 753.15,578.71 747.96,591.53 C747.29,593.16 746.39,595.40 745.95,596.50 C736.58,619.77 722.01,644.74 706.72,663.72 C695.08,678.17 684.99,688.50 667.18,704.18 C664.88,706.20 663.00,708.59 663.00,709.48 C663.00,710.38 662.14,713.00 661.08,715.32 C658.57,720.84 645.24,744.05 643.42,746.08 C642.64,746.95 642.00,747.98 642.00,748.37 C642.00,748.76 640.29,751.43 638.20,754.29 C636.11,757.16 632.90,762.20 631.08,765.50 C629.25,768.80 626.21,773.41 624.31,775.75 ZM 534.43 739.73 C538.25,743.18 541.66,746.00 542.02,746.00 C543.07,746.00 548.11,739.31 556.72,726.50 C561.15,719.90 567.35,711.58 570.49,708.00 C581.29,695.71 588.00,687.15 588.00,685.66 C588.00,681.60 571.96,665.43 560.00,657.43 C556.97,655.41 552.46,651.79 549.97,649.38 C547.47,646.97 544.83,645.00 544.10,645.00 C541.95,645.00 524.86,660.47 506.00,679.50 L 488.50 697.15 L 494.05 702.32 C497.10,705.17 504.73,712.22 511.01,718.00 C517.28,723.78 523.56,729.62 524.96,730.98 C526.36,732.35 530.62,736.28 534.43,739.73 ZM 516.91 582.55 C510.30,585.90 500.28,585.97 494.50,582.71 C489.82,580.07 483.72,571.53 481.84,565.00 C480.24,559.42 480.18,488.42 481.78,486.82 C482.32,486.28 483.83,485.98 485.13,486.17 L 487.50 486.50 L 488.01 522.50 C488.50,557.90 488.55,558.58 490.89,563.30 C496.71,575.05 508.29,576.79 513.71,566.74 C515.26,563.85 515.49,559.28 515.82,524.71 L 516.20 485.92 L 524.35 486.21 L 532.50 486.50 L 533.29 510.00 C534.33,541.00 533.74,560.09 531.54,566.19 C529.32,572.36 522.94,579.49 516.91,582.55 ZM 236.21 496.36 C236.85,497.58 237.52,497.88 238.17,497.23 C239.59,495.81 240.31,492.32 245.97,459.50 C246.45,456.75 247.79,449.10 248.95,442.50 C250.12,435.90 251.50,427.75 252.01,424.40 C252.53,421.04 253.19,417.66 253.48,416.90 C253.94,415.67 254.89,409.53 257.96,388.00 C261.80,361.05 264.15,324.83 262.13,323.58 C261.49,323.19 260.45,325.21 259.49,328.71 C257.40,336.36 248.18,364.95 246.99,367.50 C245.71,370.23 237.33,398.66 236.53,403.00 C236.17,404.92 235.49,407.40 235.01,408.50 C231.43,416.68 228.50,450.82 229.99,466.88 C231.00,477.67 234.09,492.32 236.21,496.36 ZM 549.45 744.93 C549.82,745.52 550.20,746.00 550.31,746.00 C551.04,745.98 568.35,739.49 571.50,738.04 C573.85,736.97 591.20,731.54 595.41,730.56 C597.02,730.18 600.30,727.77 602.71,725.19 C606.92,720.67 608.81,717.31 616.27,701.00 C618.16,696.88 621.99,689.54 624.80,684.69 C630.48,674.88 631.67,672.00 630.04,672.00 C628.83,672.00 620.56,675.39 610.22,680.13 C606.52,681.83 601.10,684.11 598.17,685.21 C595.23,686.31 591.80,688.40 590.53,689.85 C587.74,693.07 573.77,709.76 569.15,715.41 C567.30,717.66 562.85,724.00 559.25,729.50 C555.65,735.00 551.83,740.48 550.75,741.68 C549.67,742.87 549.09,744.34 549.45,744.93 ZM 246.64 545.85 C247.00,549.23 247.60,552.00 248.00,552.00 C248.39,552.00 249.21,548.94 249.83,545.20 C251.82,533.13 257.93,516.82 266.00,502.00 C273.08,489.01 281.98,468.26 284.87,458.00 C289.62,441.19 292.80,411.23 290.03,409.52 C289.49,409.19 286.46,413.93 283.28,420.06 C280.10,426.18 276.81,432.39 275.97,433.85 C275.13,435.31 272.62,439.65 270.38,443.50 C257.74,465.30 251.05,486.06 247.51,514.50 C245.89,527.54 245.64,536.30 246.64,545.85 ZM 242.08 587.74 C249.19,591.33 249.61,590.65 244.95,583.08 C240.51,575.85 234.38,561.23 231.49,550.98 C225.15,528.41 224.09,518.60 224.00,481.75 C223.97,467.04 223.56,455.00 223.09,455.00 C222.08,455.00 220.40,458.99 219.11,464.50 C218.59,466.70 217.21,471.65 216.04,475.50 C208.36,500.83 206.58,523.95 210.97,541.50 C216.32,562.95 228.32,580.77 242.08,587.74 ZM 572.16 743.70 C572.94,744.63 574.24,744.90 575.93,744.48 C577.34,744.12 580.97,743.42 584.00,742.92 C604.01,739.65 606.14,738.48 612.08,727.50 C613.86,724.20 618.59,716.53 622.59,710.45 C631.28,697.23 643.29,675.27 642.51,674.01 C641.82,672.90 636.15,674.72 633.71,676.83 C632.72,677.69 627.10,688.07 621.21,699.92 C608.07,726.36 603.89,732.41 597.82,733.79 C574.91,739.02 569.89,740.96 572.16,743.70 ZM 243.04 571.25 C245.38,576.27 247.20,573.25 245.13,567.80 C240.95,556.83 237.53,537.88 236.48,520.00 C235.85,509.19 234.19,501.97 229.94,491.50 C229.27,489.85 228.67,487.60 228.61,486.50 C228.42,483.03 226.51,483.80 226.19,487.48 C226.02,489.42 226.31,491.00 226.84,491.00 C227.38,491.00 228.02,496.62 228.29,503.75 C228.87,518.53 230.90,533.21 233.92,544.32 C236.21,552.74 240.97,566.79 243.04,571.25 ZM 613.50 776.31 C615.15,776.53 617.08,776.77 617.80,776.85 C619.83,777.08 623.09,772.98 628.44,763.45 C631.15,758.62 634.84,752.74 636.64,750.38 C641.08,744.57 643.56,740.56 651.35,726.58 C657.74,715.13 658.98,712.00 657.15,712.00 C655.56,712.00 653.21,715.51 648.50,724.95 C645.90,730.15 642.14,737.13 640.14,740.46 C638.14,743.80 635.83,747.86 635.00,749.48 C634.17,751.11 632.90,753.13 632.17,753.97 C628.87,757.78 622.05,767.61 622.03,768.60 C622.01,769.20 621.21,770.36 620.25,771.19 C618.88,772.36 617.08,772.53 612.00,771.99 C604.46,771.18 593.08,768.74 584.50,766.08 C568.26,761.06 553.24,757.77 551.36,758.82 C550.43,759.34 552.76,760.39 558.22,761.91 C562.77,763.18 568.30,764.82 570.50,765.56 C585.91,770.75 602.41,774.87 613.50,776.31 ZM 521.50 737.96 C526.20,740.83 529.88,742.48 530.41,741.96 C531.26,741.14 518.93,728.74 515.11,726.59 C514.23,726.09 508.27,720.80 501.87,714.84 C495.47,708.88 489.77,704.00 489.20,704.00 C487.91,704.00 480.99,711.96 481.01,713.43 C481.02,714.28 506.27,729.30 510.38,730.90 C510.94,731.12 511.88,731.70 512.45,732.19 C513.03,732.68 517.10,735.27 521.50,737.96 ZM 609.00 761.90 C613.43,762.70 613.57,762.64 617.61,758.29 C619.87,755.86 623.15,751.08 624.89,747.68 C631.46,734.86 638.95,721.90 643.50,715.50 C644.68,713.85 647.06,709.75 648.80,706.40 C651.65,700.89 651.96,699.00 650.00,699.00 C649.28,699.00 644.35,706.16 638.98,715.00 C633.05,724.77 611.10,757.82 610.16,758.40 C609.66,758.71 604.74,758.38 599.23,757.67 C590.98,756.61 588.89,756.61 587.41,757.69 C586.07,758.67 585.98,759.00 587.06,759.01 C589.16,759.02 603.75,760.94 609.00,761.90 ZM 589.67 747.33 C590.03,747.70 594.25,748.00 599.05,748.00 L 607.76 748.00 L 610.38 744.57 C611.82,742.68 613.00,740.92 613.00,740.66 C613.00,740.40 614.64,737.34 616.64,733.85 C618.64,730.36 620.79,726.60 621.41,725.50 C622.03,724.40 624.16,721.03 626.13,718.00 C629.43,712.95 637.11,700.75 639.50,696.77 C640.05,695.85 641.80,693.27 643.40,691.03 C646.54,686.63 646.38,685.43 642.80,686.34 C641.17,686.75 638.82,689.91 634.72,697.21 C631.54,702.87 626.82,710.53 624.22,714.24 C621.62,717.94 618.39,723.12 617.03,725.74 C611.06,737.26 609.13,739.68 604.75,741.21 C596.21,744.19 593.31,745.00 591.18,745.00 C589.03,745.00 588.36,746.03 589.67,747.33 ZM 506.80 741.47 C507.75,742.42 512.86,742.03 513.53,740.96 C513.88,740.39 515.08,740.21 516.20,740.56 C517.65,741.02 518.11,740.82 517.80,739.85 C517.57,739.11 514.25,736.92 510.44,735.00 C506.62,733.08 500.53,729.81 496.90,727.75 C493.28,725.69 489.83,724.00 489.25,724.00 C488.67,724.00 487.70,725.24 487.09,726.75 C486.47,728.26 485.04,730.97 483.89,732.76 L 481.80 736.02 L 485.32 737.49 C487.26,738.30 492.76,739.41 497.56,739.95 C502.35,740.50 506.51,741.18 506.80,741.47 ZM 613.00 747.04 C613.00,749.63 617.03,743.93 632.50,719.45 C636.90,712.49 642.64,703.45 645.25,699.37 C650.03,691.88 650.80,690.00 649.05,690.00 C648.11,690.00 633.77,711.01 626.99,722.32 C625.07,725.53 622.50,729.58 621.29,731.32 C618.32,735.59 613.00,745.67 613.00,747.04 ZM 624.00 757.14 C624.00,759.17 627.22,755.67 631.48,749.00 C633.76,745.42 635.94,741.83 636.32,741.00 C636.71,740.17 637.88,738.15 638.93,736.50 C639.98,734.85 643.58,728.01 646.93,721.30 C650.28,714.59 653.46,708.83 654.01,708.49 C655.43,707.61 655.23,706.00 653.69,706.00 C652.97,706.00 650.88,708.81 649.04,712.25 C647.20,715.69 643.79,721.65 641.46,725.50 C632.74,739.93 624.00,755.77 624.00,757.14 ZM 526.50 749.85 C530.65,751.22 534.74,751.22 535.60,749.85 C536.02,749.16 535.87,748.96 535.24,749.35 C534.65,749.72 534.02,749.58 533.84,749.06 C533.65,748.53 529.22,747.57 524.00,746.92 C518.78,746.27 514.05,745.39 513.50,744.98 C512.95,744.56 508.23,743.89 503.00,743.49 C497.77,743.08 491.12,742.13 488.20,741.38 C481.59,739.66 481.00,739.66 481.00,741.42 C481.00,742.21 482.43,743.15 484.25,743.54 C486.04,743.92 488.05,744.68 488.73,745.22 C489.40,745.76 496.60,746.42 504.73,746.68 C512.85,746.93 520.40,747.53 521.50,748.00 C522.60,748.47 524.85,749.30 526.50,749.85 ZM 519.00 754.35 C528.72,755.00 530.00,754.97 530.00,754.05 C530.00,753.52 528.31,752.81 526.25,752.47 C524.19,752.13 521.20,751.43 519.60,750.92 C518.01,750.42 513.06,749.98 508.60,749.96 C504.15,749.94 497.36,749.32 493.53,748.58 C489.70,747.84 485.99,747.45 485.28,747.72 C484.58,747.99 484.00,747.72 484.00,747.11 C484.00,746.50 482.85,746.00 481.44,746.00 C477.18,746.00 479.69,747.83 486.79,749.89 C492.77,751.63 506.23,753.49 519.00,754.35 ZM 582.79 754.46 C583.93,755.60 608.32,754.56 608.72,753.36 C609.19,751.94 578.84,750.42 571.15,751.48 C563.78,752.49 565.69,753.80 574.60,753.83 C578.78,753.85 582.47,754.13 582.79,754.46 ZM 691.69 318.83 C688.75,321.58 686.62,321.58 684.04,318.81 C680.31,314.81 682.42,309.67 687.81,309.67 C693.90,309.67 696.05,314.73 691.69,318.83 ZM 721.17 354.35 C717.26,357.89 711.75,355.64 711.75,350.50 C711.75,347.08 713.72,345.00 716.97,345.00 C722.17,345.00 724.87,351.00 721.17,354.35 ZM 657.44 288.78 C654.41,293.11 648.00,290.64 648.00,285.13 C648.00,281.56 649.68,280.00 653.50,280.00 C658.82,280.00 660.68,284.15 657.44,288.78 ZM 607.00 767.93 C613.35,769.13 613.80,769.13 614.54,767.93 C615.61,766.21 614.46,765.75 605.75,764.39 C601.21,763.68 595.81,762.79 593.75,762.42 C591.42,762.00 590.00,762.13 590.00,762.76 C590.00,763.77 598.33,766.30 607.00,767.93 ZM 539.72 757.65 C543.06,760.39 543.39,760.44 545.05,758.44 C546.14,757.13 545.92,756.47 543.71,754.25 C541.12,751.67 541.04,751.65 539.00,753.50 L 536.93 755.37 Z" fill="rgba(83,93,105,1)"/>
<path d="M 595.45 585.02 C589.00,587.79 577.03,587.70 571.50,584.85 C561.90,579.90 552.69,567.25 549.06,554.02 C547.56,548.56 547.00,543.55 547.00,535.48 C547.00,517.96 551.03,506.11 560.35,496.23 C568.35,487.75 571.05,486.49 581.00,486.55 C588.94,486.60 589.89,486.84 595.50,490.21 C600.93,493.47 606.00,498.57 606.00,500.77 C606.00,501.23 602.61,504.89 598.47,508.90 L 590.94 516.18 L 586.97 512.59 C582.63,508.67 579.59,508.13 575.07,510.46 C568.72,513.75 564.52,526.77 565.23,541.00 C566.22,560.93 577.40,571.48 588.57,563.03 C590.73,561.39 593.12,560.04 593.88,560.03 C594.92,560.01 608.85,567.03 610.84,568.58 C613.04,570.29 601.79,582.30 595.45,585.02 Z" fill="rgba(89,102,43,1)"/>
<path d="M 606.21 453.70 C605.21,455.27 552.26,456.02 550.99,454.49 C549.58,452.79 550.10,358.16 551.52,356.98 C552.25,356.37 563.04,355.95 579.01,355.91 C599.85,355.85 605.46,356.11 606.13,357.17 C607.40,359.17 607.20,375.76 605.90,376.56 C605.29,376.94 594.75,377.30 582.48,377.37 C570.21,377.44 559.79,377.87 559.33,378.33 C557.96,379.71 557.61,404.01 558.95,405.34 C559.75,406.15 565.17,406.42 576.69,406.25 C585.82,406.11 593.78,406.40 594.39,406.91 C595.07,407.47 595.37,410.55 595.17,414.91 L 594.84 422.00 L 579.67 422.12 C571.33,422.18 563.15,422.53 561.50,422.88 C558.57,423.50 558.50,423.66 558.50,429.51 L 558.50 435.50 L 581.42 435.77 C596.28,435.94 604.81,436.43 605.67,437.14 C607.13,438.35 607.55,451.58 606.21,453.70 ZM 643.00 737.20 C643.00,737.93 643.84,737.60 645.03,736.41 C646.25,735.19 649.57,729.75 652.54,724.43 C652.17,725.11 651.77,725.83 651.35,726.58 C643.56,740.56 641.08,744.57 636.64,750.38 C634.84,752.74 631.15,758.62 628.44,763.45 C627.37,765.35 626.39,767.04 625.48,768.52 C627.72,764.34 626.29,763.99 622.17,768.62 L 621.99 768.82 C622.01,768.74 622.03,768.66 622.03,768.60 C622.05,767.61 628.87,757.78 632.17,753.97 C632.90,753.13 634.17,751.11 635.00,749.48 C635.83,747.86 638.14,743.80 640.14,740.46 C642.14,737.13 645.90,730.15 648.50,724.95 C650.28,721.39 651.72,718.67 652.91,716.67 C649.43,722.78 643.00,735.85 643.00,737.20 ZM 572.16 743.70 C569.89,740.96 574.91,739.02 597.82,733.79 C587.83,736.08 580.44,738.26 579.50,739.21 C578.48,740.24 582.50,739.89 588.25,738.45 C589.94,738.03 591.00,738.17 591.00,738.81 C591.00,739.39 589.99,740.06 588.75,740.29 C587.34,740.57 587.88,740.78 590.20,740.86 C593.09,740.97 596.08,740.62 598.75,739.94 C595.26,740.99 590.60,741.84 584.00,742.92 C580.97,743.42 577.34,744.12 575.93,744.48 C574.24,744.90 572.94,744.63 572.16,743.70 ZM 519.00 754.35 C516.29,754.17 513.54,753.94 510.85,753.68 C517.50,754.01 525.00,753.87 525.00,753.21 C525.00,751.55 515.58,750.00 505.74,750.03 C497.39,750.06 495.87,750.28 497.50,751.24 C498.25,751.69 499.83,752.21 501.55,752.61 C495.32,751.78 489.99,750.82 486.79,749.89 C479.69,747.83 477.18,746.00 481.44,746.00 C482.85,746.00 484.00,746.50 484.00,747.11 C484.00,747.72 484.58,747.99 485.28,747.72 C485.99,747.45 489.70,747.84 493.53,748.58 C497.36,749.32 504.15,749.94 508.60,749.96 C513.06,749.98 518.01,750.42 519.60,750.92 C521.20,751.43 524.19,752.13 526.25,752.47 C528.31,752.81 530.00,753.52 530.00,754.05 C530.00,754.97 528.72,755.00 519.00,754.35 ZM 526.50 749.85 C524.85,749.30 522.60,748.47 521.50,748.00 C520.40,747.53 512.85,746.93 504.73,746.68 C496.67,746.42 489.52,745.77 488.74,745.23 C489.75,745.66 494.66,745.98 500.31,745.97 C513.58,745.93 512.91,744.66 498.81,743.09 C500.24,743.25 501.67,743.38 503.00,743.49 C508.23,743.89 512.95,744.56 513.50,744.98 C514.05,745.39 518.78,746.27 524.00,746.92 C529.22,747.57 533.65,748.53 533.84,749.06 C534.02,749.58 534.65,749.72 535.24,749.35 C535.87,748.96 536.02,749.16 535.60,749.85 C534.74,751.22 530.65,751.22 526.50,749.85 ZM 448.50 754.95 C452.35,755.49 460.23,756.60 466.00,757.42 C477.97,759.11 517.00,759.59 517.00,758.05 C517.00,756.89 513.32,756.27 501.50,755.46 C495.43,755.04 490.98,754.50 487.26,753.66 C492.41,754.78 499.15,755.41 509.32,755.85 C519.31,756.28 524.47,756.89 524.72,757.66 C525.71,760.65 485.53,760.58 466.00,757.56 C460.23,756.66 452.35,755.49 448.50,754.95 ZM 506.80 741.47 C506.51,741.18 502.35,740.50 497.56,739.95 C494.53,739.61 491.22,739.04 488.70,738.46 C495.02,739.73 507.00,740.65 507.00,739.61 C507.00,739.24 505.99,738.49 504.75,737.94 C502.95,737.15 503.33,737.06 506.62,737.47 C508.88,737.75 512.03,738.66 513.62,739.48 C514.37,739.87 515.01,740.19 515.55,740.42 C514.65,740.29 513.81,740.50 513.53,740.96 C512.86,742.03 507.75,742.42 506.80,741.47 ZM 611.00 775.94 C611.83,776.06 612.63,776.18 613.38,776.30 C602.29,774.84 585.85,770.73 570.50,765.56 C568.30,764.82 562.77,763.18 558.22,761.91 C552.76,760.39 550.43,759.34 551.36,758.82 C553.24,757.77 568.26,761.06 584.50,766.08 C586.09,766.57 587.78,767.06 589.52,767.53 C587.78,767.06 586.09,766.57 584.50,766.08 C575.14,763.20 565.45,760.99 562.34,761.05 C559.87,761.10 560.16,761.38 564.50,763.18 C576.10,768.00 598.08,774.03 611.00,775.94 ZM 605.49 761.32 C599.01,760.32 588.79,759.02 587.06,759.01 C585.98,759.00 586.07,758.67 587.41,757.69 C588.89,756.61 590.98,756.61 599.23,757.67 C602.09,758.04 604.79,758.31 606.80,758.43 L 601.50 758.34 C596.55,758.25 593.85,758.38 595.50,758.63 C597.15,758.88 599.67,759.54 601.11,760.10 C602.01,760.46 603.69,760.92 605.49,761.32 ZM 613.00 747.04 C613.00,745.67 618.32,735.59 621.29,731.32 C622.50,729.58 625.07,725.53 626.99,722.32 C629.36,718.36 632.67,713.20 636.00,708.18 C630.27,716.94 624.06,726.91 620.56,733.25 C618.51,736.96 617.22,740.00 617.70,740.00 C618.96,740.00 623.38,733.85 632.50,719.44 C636.90,712.49 642.64,703.45 645.25,699.37 C642.64,703.45 636.90,712.49 632.50,719.45 C617.03,743.93 613.00,749.63 613.00,747.04 ZM 229.34 518.42 C228.84,513.63 228.49,508.69 228.29,503.75 C228.02,496.62 227.38,491.00 226.84,491.00 C226.31,491.00 226.02,489.42 226.19,487.48 C226.51,483.80 228.42,483.03 228.61,486.50 C228.67,487.60 229.27,489.85 229.94,491.50 C231.69,495.79 232.99,499.54 233.97,503.21 C233.63,502.02 233.25,500.80 232.81,499.50 C231.15,494.55 229.35,490.05 228.81,489.50 C227.66,488.33 228.13,505.40 229.34,518.42 ZM 499.50 736.00 C499.84,736.55 499.19,737.00 498.06,737.00 C496.93,737.00 496.00,736.55 496.00,736.00 C496.00,735.45 496.65,735.00 497.44,735.00 C498.23,735.00 499.16,735.45 499.50,736.00 ZM 636.29 719.30 C633.07,724.51 626.62,734.44 621.22,742.50 L 610.50 758.50 L 609.78 758.49 C609.97,758.47 610.10,758.44 610.16,758.40 C610.99,757.89 628.19,732.07 636.29,719.30 ZM 235.93 551.15 C235.16,548.69 234.47,546.34 233.92,544.32 C232.82,540.25 231.84,535.70 231.02,530.84 C232.20,537.13 233.95,544.33 235.93,551.15 ZM 596.82 769.32 C602.31,770.56 607.76,771.53 612.00,771.99 C616.08,772.42 618.05,772.40 619.37,771.76 L 618.50 772.74 L 612.00 772.02 C607.74,771.54 602.29,770.56 596.82,769.32 ZM 484.51 743.57 C486.42,743.93 488.23,744.61 488.56,745.10 C487.76,744.57 485.91,743.89 484.25,743.54 C483.86,743.45 483.49,743.35 483.15,743.22 C483.56,743.36 484.02,743.48 484.51,743.57 ZM 486.00 740.81 C486.64,740.97 487.38,741.16 488.20,741.38 C490.37,741.94 494.62,742.61 498.81,743.08 C493.50,742.49 487.96,741.56 486.51,741.00 C486.33,740.94 486.16,740.87 486.00,740.81 ZM 612.08 727.50 C610.47,730.48 609.14,732.74 607.65,734.51 C609.04,732.63 610.78,729.90 612.08,727.50 ZM 655.43 713.06 C656.10,712.33 656.67,712.00 657.15,712.00 C657.60,712.00 657.86,712.19 657.91,712.63 C657.63,711.73 656.67,711.90 655.43,713.06 ZM 481.00 741.43 L 481.00 741.42 C481.00,740.54 481.15,740.10 482.13,740.10 C481.38,740.23 481.01,740.67 481.00,741.43 ZM 476.62 749.64 C475.17,748.76 475.01,748.07 475.31,746.39 C475.02,748.05 475.19,748.75 476.62,749.64 ZM 619.21 776.44 C618.88,776.64 618.57,776.77 618.29,776.83 C618.59,776.75 618.90,776.62 619.21,776.44 ZM 517.79 739.82 C517.80,739.83 517.80,739.84 517.80,739.85 C517.88,740.10 517.91,740.29 517.89,740.44 C517.90,740.27 517.86,740.07 517.79,739.82 Z" fill="rgba(137,147,141,1)"/>
<path d="M 596.94 743.82 C598.85,743.24 601.36,742.40 604.75,741.21 C609.13,739.68 611.06,737.26 617.03,725.74 C618.39,723.12 621.62,717.94 624.22,714.24 C626.82,710.53 631.54,702.87 634.72,697.21 C638.82,689.91 641.17,686.75 642.80,686.34 C646.38,685.43 646.54,686.63 643.40,691.03 C641.80,693.27 640.05,695.85 639.50,696.77 C637.11,700.75 629.43,712.95 626.13,718.00 C624.16,721.03 622.03,724.40 621.41,725.50 C620.79,726.60 618.64,730.36 616.64,733.85 C614.64,737.34 613.00,740.40 613.00,740.66 C613.00,740.92 611.82,742.68 610.38,744.57 L 607.76 748.00 L 599.14 748.00 C607.52,748.00 608.04,747.87 609.65,745.41 C610.59,743.98 611.47,741.69 611.62,740.31 C611.87,737.90 611.81,737.87 609.99,739.51 C608.59,740.78 603.25,742.50 596.94,743.82 ZM 620.56 733.25 C627.99,719.78 647.61,690.00 649.05,690.00 C650.80,690.00 650.03,691.88 645.25,699.37 C642.64,703.45 636.90,712.49 632.50,719.44 C623.38,733.85 618.96,740.00 617.70,740.00 C617.22,740.00 618.51,736.96 620.56,733.25 ZM 250.80 456.38 C250.26,459.56 249.65,463.19 249.08,466.50 C247.94,473.10 247.01,479.38 247.01,480.45 C247.00,483.53 248.46,481.05 250.36,474.78 C251.31,471.63 252.74,468.40 253.54,467.60 C254.34,466.80 255.00,465.86 255.00,465.51 C255.00,465.16 256.12,462.41 257.50,459.41 C258.88,456.40 260.00,453.76 260.00,453.53 C260.00,453.31 264.00,446.20 268.89,437.74 C264.00,446.20 260.00,453.32 260.00,453.57 C260.00,453.82 259.11,455.93 258.02,458.26 C256.94,460.59 254.44,467.43 252.48,473.46 C250.51,479.48 248.41,485.01 247.81,485.73 C247.21,486.46 246.94,487.27 247.21,487.54 C247.48,487.81 247.06,491.29 246.29,495.26 C245.52,499.24 244.42,507.67 243.84,514.00 C242.59,527.69 241.97,529.91 240.90,524.50 C240.19,520.87 239.96,515.61 240.17,510.72 C240.34,511.49 240.65,512.00 241.00,512.00 C241.55,512.00 242.00,511.33 242.00,510.50 C242.00,509.67 242.36,509.00 242.80,509.00 C243.24,509.00 243.41,507.35 243.17,505.34 C242.75,501.70 242.74,501.69 241.41,504.09 C241.05,504.73 240.72,505.61 240.48,506.51 C240.72,504.14 241.09,502.04 241.56,500.50 C243.76,493.36 247.68,474.54 250.80,456.38 ZM 588.75 740.29 C589.99,740.06 591.00,739.39 591.00,738.81 C591.00,738.17 589.94,738.03 588.25,738.45 C582.50,739.89 578.48,740.24 579.50,739.21 C580.44,738.26 587.83,736.08 597.82,733.79 C601.52,732.95 604.52,730.37 609.28,722.48 C608.16,724.41 607.22,725.97 606.52,727.00 C603.31,731.78 601.59,735.32 601.81,736.75 C601.93,737.57 602.18,738.29 602.46,738.69 C599.11,740.16 594.54,741.02 590.20,740.86 C587.88,740.78 587.34,740.57 588.75,740.29 ZM 582.79 754.46 C582.47,754.13 578.78,753.85 574.60,753.83 C565.69,753.80 563.78,752.49 571.15,751.48 C576.36,750.76 591.96,751.23 601.34,752.04 C598.77,752.17 598.00,752.58 598.00,753.55 C598.00,754.09 598.20,754.45 598.76,754.65 C591.73,755.05 583.45,755.11 582.79,754.46 ZM 513.62 739.48 C512.03,738.66 508.88,737.75 506.62,737.47 C503.33,737.06 502.95,737.15 504.75,737.94 C505.99,738.49 507.00,739.24 507.00,739.61 C507.00,740.56 497.13,739.88 490.59,738.80 C491.19,738.72 491.94,738.56 492.94,738.36 L 496.13 737.72 L 492.32 735.94 C490.22,734.96 489.25,734.13 490.18,734.08 C493.54,733.92 507.50,736.20 509.47,737.23 C511.48,738.28 511.48,738.27 509.57,736.12 C508.43,734.84 503.12,731.38 498.21,728.48 C501.87,730.53 507.05,733.29 510.44,735.00 C514.25,736.92 517.55,739.06 517.77,739.75 C518.29,741.39 517.14,741.32 513.62,739.48 ZM 643.00 737.20 C643.00,735.53 652.82,715.95 654.76,713.75 C656.59,711.68 658.00,711.48 658.00,713.30 C658.00,715.17 647.43,734.01 645.03,736.41 C643.84,737.60 643.00,737.93 643.00,737.20 ZM 488.57 745.11 C488.27,744.63 486.44,743.93 484.51,743.57 C482.41,743.17 481.00,742.33 481.00,741.45 C481.00,739.75 482.82,739.60 486.51,741.00 C487.96,741.56 493.50,742.49 498.81,743.09 C512.91,744.66 513.58,745.93 500.31,745.97 C494.15,745.99 488.87,745.60 488.57,745.11 ZM 634.91 736.59 C637.00,732.98 639.23,729.19 641.46,725.50 C643.79,721.65 647.20,715.69 649.04,712.25 C650.88,708.81 652.97,706.00 653.69,706.00 C655.23,706.00 655.43,707.61 654.01,708.49 C653.46,708.83 650.28,714.59 646.93,721.30 C643.58,728.01 639.98,734.85 638.93,736.50 C638.84,736.64 638.75,736.78 638.66,736.93 C639.66,734.90 640.27,733.24 640.15,732.71 C640.05,732.27 640.48,730.92 641.09,729.71 C642.30,727.32 637.08,733.27 634.91,736.59 ZM 607.00 767.93 C598.33,766.30 590.00,763.77 590.00,762.76 C590.00,762.13 591.42,762.00 593.75,762.42 C595.81,762.79 601.21,763.68 605.75,764.39 C614.46,765.75 615.61,766.21 614.54,767.93 C613.80,769.13 613.35,769.13 607.00,767.93 ZM 608.61 761.93 C605.92,761.49 602.54,760.67 601.11,760.10 C599.67,759.54 597.15,758.88 595.50,758.63 C593.85,758.38 596.55,758.25 601.50,758.34 L 610.50 758.50 L 618.06 747.21 C612.01,756.52 610.00,759.90 610.00,760.61 C610.00,760.83 610.90,761.00 612.00,761.00 C613.30,761.00 615.62,758.80 618.60,754.75 C621.13,751.31 623.56,748.28 623.99,748.00 C624.42,747.72 625.95,745.36 627.39,742.75 C628.57,740.60 629.58,738.77 630.45,737.19 C628.58,740.60 626.70,744.15 624.89,747.68 C623.15,751.08 619.87,755.86 617.61,758.30 C613.51,762.72 613.48,762.73 608.61,761.93 ZM 504.00 753.08 C501.52,752.72 498.60,751.89 497.50,751.24 C495.87,750.28 497.39,750.06 505.74,750.03 C515.58,750.00 525.00,751.55 525.00,753.21 C525.00,753.59 522.51,753.80 519.12,753.84 C519.74,753.68 520.25,753.41 520.50,753.00 C520.84,752.45 520.70,752.00 520.18,752.00 C519.67,752.00 517.84,751.72 516.11,751.37 C513.48,750.85 513.07,751.01 513.59,752.37 C513.86,753.09 514.85,753.59 516.00,753.84 C511.80,753.78 507.07,753.52 504.00,753.08 ZM 611.00 775.94 C608.21,775.53 605.01,774.92 601.58,774.18 C605.67,774.90 610.68,775.31 613.27,775.13 L 618.50 774.76 L 611.50 772.89 C608.16,771.99 604.83,771.13 601.67,770.35 C605.43,771.10 609.01,771.68 612.00,772.02 L 618.50 772.74 L 622.17 768.62 C626.97,763.23 628.12,764.58 624.08,770.87 C621.21,775.34 619.05,777.22 617.17,776.88 C616.80,776.81 614.03,776.39 611.00,775.94 ZM 584.18 769.79 C576.71,767.65 569.60,765.30 564.50,763.18 C560.16,761.38 559.87,761.10 562.34,761.05 C565.45,760.99 575.14,763.20 584.50,766.08 C586.26,766.63 588.15,767.17 590.10,767.68 C586.57,766.94 583.75,766.43 582.03,766.24 C578.26,765.84 577.74,765.98 578.73,767.18 C579.31,767.88 581.28,768.80 584.18,769.79 ZM 521.50 737.96 C519.62,736.81 517.79,735.68 516.28,734.72 C516.95,735.09 517.66,735.48 518.39,735.87 C521.63,737.59 524.78,738.98 525.39,738.96 C526.61,738.91 502.48,715.28 493.02,706.90 C495.35,708.89 498.52,711.71 501.87,714.84 C508.27,720.80 514.23,726.09 515.11,726.59 C518.93,728.74 531.26,741.14 530.41,741.96 C529.88,742.48 526.20,740.83 521.50,737.96 ZM 635.80 720.09 C636.30,719.30 636.73,718.60 637.09,718.00 C643.93,706.73 649.18,699.00 650.00,699.00 C651.96,699.00 651.65,700.89 648.80,706.40 C647.06,709.75 644.68,713.85 643.50,715.50 C642.55,716.84 641.47,718.47 640.29,720.32 C641.76,717.80 642.68,716.00 642.46,716.00 C642.18,716.00 642.64,714.67 643.47,713.05 C647.36,705.54 643.95,707.23 638.86,715.33 C638.29,716.24 637.21,717.92 635.80,720.09 ZM 225.42 521.87 C224.43,513.38 224.05,504.06 223.95,491.46 C223.88,482.30 223.42,475.00 222.91,475.00 C222.41,475.00 222.00,471.82 222.00,467.93 C222.00,462.02 221.78,461.08 220.66,462.20 C219.92,462.93 219.07,464.65 218.76,466.02 C218.45,467.38 217.23,471.65 216.06,475.50 C215.78,476.40 215.52,477.26 215.27,478.10 C215.52,477.24 215.78,476.37 216.04,475.50 C217.21,471.65 218.59,466.70 219.11,464.50 C220.40,458.99 222.08,455.00 223.09,455.00 C223.56,455.00 223.97,467.04 224.00,481.75 C224.05,500.27 224.33,511.96 225.42,521.87 ZM 210.97 541.50 C207.61,528.07 207.87,511.39 211.61,492.94 C210.30,500.40 209.97,507.82 209.97,520.00 C209.97,532.62 210.19,537.72 211.17,542.29 C211.10,542.03 211.03,541.76 210.97,541.50 ZM 636.95 694.75 C634.23,700.76 634.21,700.94 636.37,699.31 C639.00,697.32 642.12,693.36 642.38,691.68 C642.48,691.03 642.93,689.90 643.39,689.17 C644.01,688.18 643.65,687.92 642.00,688.17 C640.38,688.41 639.03,690.17 636.95,694.75 ZM 243.04 571.25 C241.42,567.76 239.67,563.09 237.99,557.89 C238.91,560.51 239.83,562.84 240.71,564.75 C241.55,566.54 242.41,568.00 242.62,568.00 C243.18,568.00 242.55,562.60 240.87,552.72 C242.13,558.54 243.57,563.72 245.13,567.80 C247.20,573.25 245.38,576.27 243.04,571.25 ZM 262.07 348.75 C262.47,341.61 262.39,337.00 261.68,337.00 C261.23,337.00 261.11,336.21 261.42,335.25 C261.72,334.29 261.61,332.18 261.18,330.57 L 260.39 327.64 L 259.30 330.57 C258.76,332.04 256.38,339.23 253.83,347.14 C256.24,339.61 258.57,332.10 259.49,328.71 C260.45,325.21 261.49,323.19 262.13,323.58 C263.21,324.25 263.04,334.88 262.07,348.75 ZM 500.15 755.36 C500.59,755.39 501.04,755.43 501.50,755.46 C513.32,756.27 517.00,756.89 517.00,758.05 C517.00,758.80 507.76,759.07 496.90,758.96 C503.83,758.94 509.00,758.63 509.00,758.00 C509.00,757.45 507.45,757.00 505.56,757.00 C503.67,757.00 501.84,756.55 501.50,756.00 C501.35,755.76 500.85,755.54 500.15,755.36 ZM 246.64 545.85 C246.57,545.20 246.51,544.55 246.46,543.90 C246.52,544.11 246.59,544.26 246.67,544.33 C248.26,545.93 249.83,544.74 250.44,541.47 C251.23,537.28 253.04,531.47 255.43,525.17 C252.75,532.41 250.80,539.31 249.83,545.20 C249.21,548.94 248.39,552.00 248.00,552.00 C247.60,552.00 247.00,549.23 246.64,545.85 ZM 499.50 736.00 C499.16,735.45 498.23,735.00 497.44,735.00 C496.65,735.00 496.00,735.45 496.00,736.00 C496.00,736.55 496.93,737.00 498.06,737.00 C499.19,737.00 499.84,736.55 499.50,736.00 ZM 616.71 708.86 C618.08,706.17 619.58,703.20 621.21,699.92 C627.10,688.07 632.72,677.69 633.71,676.83 C632.68,677.81 627.33,687.69 621.77,698.92 C620.14,702.20 618.41,705.59 616.71,708.86 ZM 246.05 534.54 C246.05,528.67 246.53,522.37 247.51,514.50 C246.70,521.04 246.18,528.64 246.05,534.54 ZM 483.14 752.51 C486.53,753.65 490.32,754.40 495.49,754.95 C491.57,754.78 487.19,753.90 483.14,752.51 ZM 627.56 749.71 C629.21,746.64 631.32,742.84 633.68,738.73 C632.59,740.68 630.60,744.25 628.63,747.76 C628.26,748.42 627.90,749.08 627.56,749.71 ZM 224.15 571.19 C229.41,578.64 235.60,584.46 242.08,587.73 C235.53,584.42 229.38,578.64 224.15,571.19 ZM 635.27 742.87 C634.34,744.44 632.93,746.73 631.48,749.00 C630.36,750.75 629.31,752.28 628.38,753.55 C630.15,751.05 632.45,747.48 635.27,742.87 ZM 611.49 728.55 C609.76,731.59 607.54,734.87 606.28,736.20 C606.19,736.29 606.09,736.39 605.99,736.49 C607.71,734.51 609.76,731.60 611.49,728.55 ZM 489.20 704.00 C489.21,704.00 489.23,704.00 489.26,704.01 C488.45,704.18 486.36,706.18 484.48,708.32 C486.40,706.08 488.54,704.00 489.20,704.00 ZM 589.07 746.47 C588.79,745.69 589.38,745.13 590.68,745.02 C589.40,745.38 588.88,745.84 589.07,746.47 ZM 511.34 731.40 C510.99,731.19 510.64,731.00 510.38,730.90 C508.19,730.05 500.01,725.40 492.84,721.10 C500.09,725.43 508.35,730.13 510.42,730.90 C510.72,731.01 511.05,731.19 511.34,731.40 ZM 487.09 726.75 C487.70,725.24 488.67,724.00 489.25,724.00 C489.27,724.00 489.28,724.00 489.30,724.00 C488.66,724.06 487.68,725.28 487.09,726.75 ZM 624.00 757.14 C624.00,756.77 624.61,755.40 625.68,753.30 C624.66,755.32 624.01,756.79 624.00,757.16 C624.00,757.15 624.00,757.14 624.00,757.14 ZM 254.99 408.44 C255.48,405.18 256.14,400.72 257.01,394.64 C256.15,400.67 255.49,405.14 254.99,408.44 ZM 482.26 736.21 L 481.80 736.02 L 481.81 736.02 L 482.26 736.21 Z" fill="rgba(196,200,194,1)"/>
<path d="M 497.37 455.80 C495.14,456.98 478.65,457.78 476.09,456.84 C473.70,455.95 472.92,446.99 473.25,424.00 C473.39,414.38 473.44,395.39 473.37,381.81 C473.26,359.86 473.42,357.05 474.87,356.46 C475.77,356.09 482.44,355.55 489.70,355.26 C501.71,354.77 503.45,354.92 508.92,356.97 C518.89,360.70 524.72,368.18 526.07,379.00 C527.35,389.22 524.35,398.73 517.24,407.03 L 513.80 411.05 L 517.99 419.10 C520.29,423.52 524.68,431.50 527.75,436.82 C537.65,454.02 537.66,454.04 535.43,455.68 C534.09,456.65 531.25,456.99 526.01,456.79 L 518.50 456.50 L 508.87 437.54 C503.58,427.11 498.67,418.39 497.97,418.16 C496.94,417.81 496.82,420.52 497.36,431.61 C497.73,439.25 498.31,447.59 498.63,450.15 C499.13,454.04 498.93,454.97 497.37,455.80 ZM 496.00 386.50 C496.00,394.35 496.72,395.39 500.33,392.75 C502.31,391.30 503.54,385.27 502.60,381.55 C502.09,379.53 501.34,379.00 498.98,379.00 L 496.00 379.00 Z" fill="rgba(160,137,220,1)"/>
<path d="M 381.07 583.33 L 380.05 586.00 L 353.09 586.00 C327.83,586.00 326.10,585.88 325.55,584.17 C324.96,582.29 325.66,488.00 326.28,487.39 C327.05,486.62 379.89,486.57 380.66,487.33 C382.08,488.74 382.36,504.86 381.00,506.50 C380.01,507.70 375.81,507.94 357.28,507.90 C344.90,507.86 334.35,508.25 333.85,508.75 C333.35,509.25 333.07,515.70 333.22,523.08 L 333.50 536.50 L 370.08 537.05 L 369.50 552.50 L 364.50 552.23 C361.75,552.08 353.54,552.24 346.25,552.58 L 333.00 553.20 L 333.00 566.96 L 357.25 567.23 L 381.50 567.50 L 381.79 574.08 C381.95,577.69 381.63,581.85 381.07,583.33 ZM 443.69 454.66 C441.98,455.54 437.06,456.45 432.56,456.72 C425.25,457.14 424.04,456.94 419.50,454.52 C403.09,445.75 393.09,424.67 394.34,401.50 C395.19,385.74 400.45,372.51 409.30,363.89 C415.21,358.12 420.61,356.00 429.39,356.00 C435.88,356.00 437.22,356.36 442.56,359.54 C448.07,362.82 453.91,368.36 453.97,370.35 C453.99,370.82 450.52,374.49 446.26,378.50 L 438.52 385.80 L 434.76 382.40 C428.99,377.19 421.61,378.31 417.66,385.00 C413.47,392.09 411.69,409.52 414.07,420.00 C416.06,428.73 422.97,435.99 429.31,436.00 C430.98,436.00 433.95,434.60 436.63,432.56 C439.45,430.40 441.77,429.34 442.82,429.72 C446.27,430.95 459.00,438.21 459.00,438.94 C459.00,441.87 449.45,451.68 443.69,454.66 ZM 423.35 454.07 C424.53,454.58 428.65,454.84 432.50,454.66 C442.11,454.19 446.87,451.64 450.23,445.15 C452.69,440.42 452.73,440.07 451.08,438.58 C450.13,437.71 448.87,437.00 448.29,437.00 C447.71,437.00 446.49,435.88 445.59,434.50 C443.72,431.64 441.51,431.27 440.21,433.59 C439.07,435.63 429.58,438.74 426.05,438.22 C424.57,438.00 421.07,435.73 418.28,433.16 C411.79,427.19 410.67,423.36 410.42,406.34 C410.24,393.53 410.31,393.03 413.08,388.18 C416.44,382.31 423.70,376.00 427.10,376.01 C428.42,376.01 430.85,376.91 432.50,378.00 C434.15,379.09 436.92,379.99 438.65,379.99 C441.33,380.00 442.20,379.33 444.40,375.57 C445.83,373.14 447.00,370.66 447.00,370.06 C447.00,368.06 442.56,362.17 439.86,360.58 C436.68,358.70 425.34,358.56 419.89,360.33 C415.21,361.85 404.62,371.52 402.72,376.00 C397.04,389.45 396.74,390.61 396.36,400.50 C396.11,407.14 396.45,412.18 397.39,415.50 C399.89,424.41 403.31,433.43 405.24,436.24 C406.28,437.75 406.85,439.44 406.50,439.99 C405.71,441.27 411.35,446.55 416.18,449.06 C418.21,450.11 420.17,451.46 420.53,452.06 C420.90,452.65 422.17,453.56 423.35,454.07 Z" fill="rgba(210,107,105,1)"/>
<path d="M 436.98 583.01 C427.10,585.96 405.56,587.00 402.50,584.68 C400.66,583.29 400.46,581.67 400.00,564.83 C399.72,554.75 399.67,533.76 399.88,518.19 C400.19,495.24 400.53,489.61 401.70,488.44 C402.82,487.32 406.32,487.00 417.48,487.00 C429.77,487.00 432.66,487.31 437.66,489.18 C451.15,494.22 459.40,503.10 463.97,517.50 C465.84,523.38 466.20,526.90 466.26,539.55 C466.33,553.86 466.20,554.88 463.62,560.55 C458.72,571.26 449.08,579.40 436.98,583.01 ZM 423.35 454.07 C422.17,453.56 420.90,452.65 420.53,452.06 C420.17,451.46 418.21,450.11 416.18,449.06 C411.35,446.55 405.71,441.27 406.50,439.99 C406.85,439.44 406.28,437.75 405.24,436.24 C403.31,433.43 399.89,424.41 397.39,415.50 C396.45,412.18 396.11,407.14 396.36,400.50 C396.74,390.61 397.04,389.45 402.72,376.00 C404.62,371.52 415.21,361.85 419.89,360.33 C425.34,358.56 436.68,358.70 439.86,360.58 C442.56,362.17 447.00,368.06 447.00,370.06 C447.00,370.66 445.83,373.14 444.40,375.57 C442.20,379.33 441.33,380.00 438.65,379.99 C436.92,379.99 434.15,379.09 432.50,378.00 C430.85,376.91 428.42,376.01 427.10,376.01 C423.70,376.00 416.44,382.31 413.08,388.18 C410.31,393.03 410.24,393.53 410.42,406.34 C410.67,423.36 411.79,427.19 418.28,433.16 C421.07,435.73 424.57,438.00 426.05,438.22 C429.58,438.74 439.07,435.63 440.21,433.59 C441.51,431.27 443.72,431.64 445.59,434.50 C446.49,435.88 447.71,437.00 448.29,437.00 C448.87,437.00 450.13,437.71 451.08,438.58 C452.73,440.07 452.69,440.42 450.23,445.15 C446.87,451.64 442.11,454.19 432.50,454.66 C428.65,454.84 424.53,454.58 423.35,454.07 ZM 424.47 553.95 C424.83,554.53 425.55,555.00 426.08,555.00 C427.63,555.00 436.02,546.86 437.58,543.85 C439.40,540.33 439.41,529.93 437.61,525.60 C436.17,522.17 431.13,517.73 427.38,516.59 C425.30,515.96 425.26,516.23 424.54,534.42 C424.14,544.58 424.11,553.37 424.47,553.95 Z" fill="rgba(218,113,42,1)"/>
<path d="M 623.60 585.23 C619.34,588.08 618.88,582.63 622.37,570.64 C623.68,566.17 626.44,556.20 628.51,548.50 C630.57,540.80 632.82,532.70 633.51,530.50 C634.20,528.30 635.56,523.12 636.54,519.00 C637.52,514.88 639.34,508.80 640.58,505.50 C641.82,502.20 643.60,496.80 644.53,493.50 C647.33,483.64 650.95,481.25 653.58,487.54 C654.40,489.49 656.58,496.36 658.43,502.79 C660.29,509.23 663.22,518.33 664.96,523.00 C676.99,555.45 686.34,583.65 685.51,584.98 C684.77,586.18 678.06,586.32 676.27,585.19 C675.59,584.76 674.16,581.05 673.09,576.95 C670.23,565.98 666.15,554.83 664.24,552.71 C662.73,551.04 661.16,550.89 648.36,551.18 C640.55,551.36 633.88,551.78 633.53,552.13 C633.03,552.64 628.48,569.16 625.32,582.00 C624.98,583.38 624.21,584.83 623.60,585.23 ZM 638.25 540.97 C639.49,541.47 641.10,541.68 641.83,541.44 C642.56,541.20 646.74,541.00 651.11,541.00 C657.42,541.00 659.19,540.68 659.67,539.43 C660.27,537.84 659.06,532.93 656.24,525.50 C655.40,523.30 653.50,517.00 652.01,511.50 C648.72,499.38 647.09,498.31 644.69,506.71 C641.93,516.36 636.00,538.65 636.00,539.38 C636.00,539.76 637.01,540.47 638.25,540.97 ZM 424.47 553.95 C424.11,553.37 424.14,544.58 424.54,534.42 C425.26,516.23 425.30,515.96 427.38,516.59 C431.13,517.73 436.17,522.17 437.61,525.60 C439.41,529.93 439.40,540.33 437.58,543.85 C436.02,546.86 427.63,555.00 426.08,555.00 C425.55,555.00 424.83,554.53 424.47,553.95 ZM 425.82 550.36 C426.33,552.91 428.61,552.31 431.95,548.75 C436.99,543.37 438.32,539.55 437.72,532.12 C437.25,526.18 436.86,525.26 433.61,522.28 C431.64,520.48 429.15,519.00 428.06,519.00 C426.21,519.00 426.08,519.86 425.80,533.86 C425.64,542.04 425.65,549.46 425.82,550.36 ZM 466.55 527.00 C468.95,536.56 468.46,546.64 465.55,555.45 C466.27,552.47 466.31,548.76 466.26,539.55 C466.22,530.06 466.00,525.71 465.11,521.64 C465.60,523.34 466.08,525.12 466.55,527.00 ZM 437.66 489.18 C447.28,492.77 453.65,497.44 458.42,505.34 C453.60,497.82 446.84,492.61 437.66,489.18 ZM 436.98 583.01 C442.05,581.50 446.69,579.19 450.72,576.23 C446.53,579.67 443.31,581.13 437.00,583.01 C434.53,583.75 431.32,584.36 427.86,584.84 C431.32,584.36 434.51,583.75 436.98,583.01 Z" fill="rgba(235,179,109,1)"/>
<path d="M 467.50 824.40 C465.85,824.18 459.10,823.28 452.50,822.41 C309.11,803.46 194.87,690.19 173.93,546.22 C166.60,495.81 171.23,444.13 187.43,395.65 C203.36,347.97 229.68,305.42 265.50,269.43 C329.94,204.69 415.36,170.62 506.50,173.30 C555.19,174.74 599.43,185.77 642.25,207.15 C714.19,243.07 769.43,302.97 799.77,378.00 C849.05,499.82 818.71,641.89 723.85,733.51 C681.16,774.75 632.45,801.68 574.56,816.05 C546.84,822.93 535.71,824.21 501.00,824.53 C484.23,824.68 469.15,824.62 467.50,824.40 ZM 624.31 775.75 C626.21,773.41 629.25,768.80 631.08,765.50 C632.90,762.20 636.11,757.16 638.20,754.29 C640.29,751.43 642.00,748.76 642.00,748.37 C642.00,747.98 642.64,746.95 643.42,746.08 C645.24,744.05 658.57,720.84 661.08,715.32 C662.14,713.00 663.00,710.38 663.00,709.48 C663.00,708.59 664.88,706.20 667.18,704.18 C684.99,688.50 695.08,678.17 706.72,663.72 C722.01,644.74 736.58,619.77 745.95,596.50 C746.39,595.40 747.29,593.16 747.96,591.53 C753.15,578.71 758.34,559.40 760.87,543.50 C761.48,539.65 762.54,533.12 763.23,529.00 C765.03,518.14 764.67,480.33 762.63,466.50 C759.27,443.69 758.29,439.16 752.52,419.50 C749.21,408.24 738.23,381.89 735.32,378.24 C733.67,376.16 732.87,375.78 731.97,376.65 C731.07,377.54 731.87,380.05 735.40,387.34 C742.63,402.32 749.78,422.38 753.10,437.00 C758.87,462.49 759.33,466.94 759.42,498.00 C759.49,522.28 759.17,529.53 757.64,539.00 C756.61,545.33 755.41,551.40 754.97,552.50 C754.53,553.60 753.65,557.36 753.01,560.87 C750.77,573.21 741.24,598.98 732.82,615.50 C726.90,627.11 716.56,643.62 708.22,654.78 C698.87,667.31 677.23,690.26 667.42,698.06 C661.99,702.38 660.78,702.95 659.04,702.02 C657.92,701.42 657.00,700.23 657.00,699.38 C657.00,698.52 656.00,697.01 654.77,696.02 C652.76,694.39 652.68,693.97 653.91,691.68 C655.13,689.39 655.03,688.84 652.88,686.12 C651.33,684.16 649.57,683.09 647.81,683.06 C644.02,682.98 643.53,681.50 645.97,677.54 C647.78,674.62 647.90,673.81 646.80,672.06 C646.01,670.78 644.46,670.00 642.73,670.00 C640.68,670.00 639.70,669.34 639.00,667.50 C638.48,666.12 637.90,665.00 637.71,665.00 C636.97,665.00 614.16,674.27 609.44,676.50 C602.29,679.86 594.16,683.00 592.60,683.00 C591.86,683.00 590.11,681.26 588.70,679.12 C584.47,672.73 573.55,662.48 563.53,655.49 C558.34,651.88 552.33,646.91 550.17,644.46 C548.01,642.01 545.63,640.00 544.87,640.00 C542.59,640.00 533.46,647.74 514.42,665.81 C491.03,688.00 483.07,697.17 485.08,699.60 C485.79,700.45 484.61,702.48 481.04,706.55 C478.27,709.72 476.00,713.13 476.00,714.14 C476.00,715.25 477.53,716.74 479.93,717.97 C482.09,719.07 484.16,720.44 484.51,721.02 C485.29,722.28 481.68,729.56 478.68,732.80 C477.46,734.13 476.45,736.68 476.32,738.80 C476.20,740.84 475.80,743.94 475.44,745.70 C474.83,748.71 475.04,749.01 479.14,750.91 C484.53,753.40 491.17,754.94 496.69,754.98 C499.00,754.99 501.16,755.45 501.50,756.00 C501.84,756.55 503.67,757.00 505.56,757.00 C507.45,757.00 509.00,757.45 509.00,758.00 C509.00,759.55 478.08,759.13 466.00,757.42 C460.23,756.60 452.35,755.49 448.50,754.95 C444.65,754.41 440.38,753.56 439.00,753.06 C437.62,752.56 433.12,751.20 429.00,750.05 C383.11,737.19 342.58,712.42 309.49,677.00 C305.63,672.88 300.94,667.47 299.06,665.00 C297.19,662.53 294.41,659.15 292.89,657.50 C288.61,652.86 274.41,629.77 267.97,617.00 C264.79,610.67 260.00,600.10 257.34,593.50 L 252.50 581.50 L 252.52 566.50 C252.57,542.30 255.01,533.79 271.62,500.14 C281.94,479.21 286.55,467.90 289.79,455.50 C290.37,453.30 291.31,449.70 291.88,447.50 C294.83,436.10 295.71,404.70 293.40,393.25 C292.28,387.66 288.00,389.36 288.00,395.41 C288.00,398.46 283.89,410.31 280.53,416.93 C279.02,419.92 273.78,429.29 268.89,437.74 C264.00,446.20 260.00,453.31 260.00,453.53 C260.00,453.76 258.88,456.40 257.50,459.41 C256.12,462.41 255.00,465.16 255.00,465.51 C255.00,465.86 254.34,466.80 253.54,467.60 C252.74,468.40 251.31,471.63 250.36,474.78 C248.46,481.05 247.00,483.53 247.01,480.45 C247.01,479.38 247.94,473.10 249.08,466.50 C250.21,459.90 251.54,452.02 252.03,449.00 C252.52,445.98 253.88,438.10 255.05,431.50 C256.21,424.90 257.55,417.25 258.01,414.50 C261.44,394.25 262.26,391.11 266.26,383.00 C271.32,372.74 282.88,353.52 288.45,346.11 C290.68,343.14 293.39,339.54 294.47,338.11 C320.08,304.21 363.93,271.64 404.20,256.60 C430.86,246.64 450.08,242.24 479.00,239.44 C505.19,236.91 534.12,239.35 563.19,246.54 C584.53,251.82 605.10,259.52 620.78,268.10 C627.83,271.96 630.00,272.31 630.00,269.57 C630.00,267.23 608.29,256.87 590.00,250.50 C557.00,238.98 533.73,235.00 499.47,235.00 C461.54,235.00 431.49,240.98 396.50,255.48 C345.84,276.48 299.21,316.89 273.02,362.50 C267.83,371.54 265.44,374.77 264.59,373.92 C264.33,373.67 264.81,367.17 265.64,359.48 C267.38,343.44 267.07,313.87 265.12,310.22 C263.07,306.39 261.17,307.58 259.52,313.75 C257.34,321.85 255.16,329.17 251.97,339.00 C250.46,343.67 248.91,348.96 248.53,350.74 C248.15,352.52 247.43,354.23 246.92,354.55 C246.42,354.86 246.00,356.00 246.00,357.07 C246.00,358.15 245.59,359.81 245.08,360.76 C243.95,362.90 240.91,372.00 237.99,382.00 C236.79,386.12 234.99,392.20 234.00,395.50 C232.35,400.98 229.51,413.25 228.25,420.38 C227.95,422.04 226.96,423.46 225.90,423.74 C223.75,424.30 223.34,425.46 222.46,433.50 C222.10,436.80 220.91,442.88 219.81,447.00 C218.72,451.12 217.59,455.40 217.30,456.50 C217.02,457.60 215.66,462.10 214.30,466.50 C199.20,515.11 202.44,552.60 223.92,577.90 C231.00,586.25 240.66,592.88 249.42,595.40 C252.54,596.30 253.89,597.39 255.17,600.04 C270.98,632.84 279.95,648.14 291.50,662.01 C293.70,664.65 298.20,670.06 301.50,674.03 C314.40,689.54 333.91,706.45 355.06,720.45 C375.88,734.23 409.87,749.70 430.00,754.54 C463.64,762.64 468.39,763.12 512.50,762.85 C537.34,762.70 550.65,762.99 553.00,763.73 C598.74,778.18 604.49,779.68 614.68,779.88 C620.80,780.00 620.90,779.96 624.31,775.75 ZM 595.45 585.02 C601.79,582.30 613.04,570.29 610.84,568.58 C608.85,567.03 594.92,560.01 593.88,560.03 C593.12,560.04 590.73,561.39 588.57,563.03 C577.40,571.48 566.22,560.93 565.23,541.00 C564.52,526.77 568.72,513.75 575.07,510.46 C579.59,508.13 582.63,508.67 586.97,512.59 L 590.94 516.18 L 598.47 508.90 C602.61,504.89 606.00,501.23 606.00,500.77 C606.00,498.57 600.93,493.47 595.50,490.21 C589.89,486.84 588.94,486.60 581.00,486.55 C571.05,486.49 568.35,487.75 560.35,496.23 C551.03,506.11 547.00,517.96 547.00,535.48 C547.00,543.55 547.56,548.56 549.06,554.02 C552.69,567.25 561.90,579.90 571.50,584.85 C577.03,587.70 589.00,587.79 595.45,585.02 ZM 381.07 583.33 C381.63,581.85 381.95,577.69 381.79,574.08 L 381.50 567.50 L 357.25 567.23 L 333.00 566.96 L 333.00 560.08 L 333.00 553.20 L 346.25 552.58 C353.54,552.24 361.75,552.08 364.50,552.23 L 369.50 552.50 L 369.79 544.77 L 370.08 537.05 L 351.79 536.77 L 333.50 536.50 L 333.22 523.08 C333.07,515.70 333.35,509.25 333.85,508.75 C334.35,508.25 344.90,507.86 357.28,507.90 C375.81,507.94 380.01,507.70 381.00,506.50 C382.36,504.86 382.08,488.74 380.66,487.33 C379.89,486.57 327.05,486.62 326.28,487.39 C325.66,488.00 324.96,582.29 325.55,584.17 C326.10,585.88 327.83,586.00 353.09,586.00 L 380.05 586.00 L 381.07 583.33 ZM 437.00 583.01 C445.39,580.51 448.33,578.76 455.33,572.10 C466.19,561.77 470.71,543.60 466.55,527.00 C460.88,504.37 453.91,495.25 437.66,489.18 C432.66,487.31 429.77,487.00 417.48,487.00 C406.32,487.00 402.82,487.32 401.70,488.44 C400.53,489.61 400.19,495.24 399.88,518.19 C399.67,533.76 399.72,554.75 400.00,564.83 C400.46,581.67 400.66,583.29 402.50,584.68 C405.57,587.00 427.10,585.96 437.00,583.01 ZM 623.60 585.23 C624.21,584.83 624.98,583.38 625.32,582.00 C628.48,569.16 633.03,552.64 633.53,552.13 C633.88,551.78 640.55,551.36 648.36,551.18 C661.16,550.89 662.73,551.04 664.24,552.71 C666.15,554.83 670.23,565.98 673.09,576.95 C674.16,581.05 675.59,584.76 676.27,585.19 C678.06,586.32 684.77,586.18 685.51,584.98 C686.34,583.65 676.99,555.45 664.96,523.00 C663.22,518.33 660.29,509.23 658.43,502.79 C656.58,496.36 654.40,489.49 653.58,487.54 C650.95,481.25 647.33,483.64 644.53,493.50 C643.60,496.80 641.82,502.20 640.58,505.50 C639.34,508.80 637.52,514.88 636.54,519.00 C635.56,523.12 634.20,528.30 633.51,530.50 C632.82,532.70 630.57,540.80 628.51,548.50 C626.44,556.20 623.68,566.17 622.37,570.64 C618.88,582.63 619.34,588.08 623.60,585.23 ZM 516.91 582.55 C522.94,579.49 529.32,572.36 531.54,566.19 C533.74,560.09 534.33,541.00 533.29,510.00 L 532.50 486.50 L 524.35 486.21 L 516.20 485.92 L 515.82 524.71 C515.49,559.28 515.26,563.85 513.71,566.74 C508.29,576.79 496.71,575.05 490.89,563.30 C488.55,558.58 488.50,557.90 488.01,522.50 L 487.50 486.50 L 485.13 486.17 C483.83,485.98 482.32,486.28 481.78,486.82 C480.18,488.42 480.24,559.42 481.84,565.00 C483.72,571.53 489.82,580.07 494.50,582.71 C500.28,585.97 510.30,585.90 516.91,582.55 ZM 497.37 455.80 C498.93,454.97 499.13,454.04 498.63,450.15 C498.31,447.59 497.73,439.25 497.36,431.61 C496.82,420.52 496.94,417.81 497.97,418.16 C498.67,418.39 503.58,427.11 508.87,437.54 L 518.50 456.50 L 526.01 456.79 C531.25,456.99 534.09,456.65 535.43,455.68 C537.66,454.04 537.65,454.02 527.75,436.82 C524.68,431.50 520.29,423.52 517.99,419.10 L 513.80 411.05 L 517.24 407.03 C524.35,398.73 527.35,389.22 526.07,379.00 C524.72,368.18 518.89,360.70 508.92,356.97 C503.45,354.92 501.71,354.77 489.70,355.26 C482.44,355.55 475.77,356.09 474.87,356.46 C473.42,357.05 473.26,359.86 473.37,381.81 C473.44,395.39 473.39,414.38 473.25,424.00 C472.92,446.99 473.70,455.95 476.09,456.84 C478.65,457.78 495.14,456.98 497.37,455.80 ZM 443.69 454.66 C449.45,451.68 459.00,441.87 459.00,438.94 C459.00,438.21 446.27,430.95 442.82,429.72 C441.77,429.34 439.45,430.40 436.63,432.56 C433.95,434.60 430.98,436.00 429.31,436.00 C422.97,435.99 416.06,428.73 414.07,420.00 C411.69,409.52 413.47,392.09 417.66,385.00 C421.61,378.31 428.99,377.19 434.76,382.40 L 438.52 385.80 L 446.26 378.50 C450.52,374.49 453.99,370.82 453.97,370.35 C453.91,368.36 448.07,362.82 442.56,359.54 C437.22,356.36 435.88,356.00 429.39,356.00 C420.61,356.00 415.21,358.12 409.30,363.89 C400.45,372.51 395.19,385.74 394.34,401.50 C393.09,424.67 403.09,445.75 419.50,454.52 C424.04,456.94 425.25,457.14 432.56,456.72 C437.06,456.45 441.98,455.54 443.69,454.66 ZM 606.21 453.70 C607.55,451.58 607.13,438.35 605.67,437.14 C604.81,436.43 596.28,435.94 581.42,435.77 L 558.50 435.50 L 558.50 429.51 C558.50,423.66 558.57,423.50 561.50,422.88 C563.15,422.53 571.33,422.18 579.67,422.12 L 594.84 422.00 L 595.17 414.91 C595.37,410.55 595.07,407.47 594.39,406.91 C593.78,406.40 585.82,406.11 576.69,406.25 C565.17,406.42 559.75,406.15 558.95,405.34 C557.61,404.01 557.96,379.71 559.33,378.33 C559.79,377.87 570.21,377.44 582.48,377.37 C594.75,377.30 605.29,376.94 605.90,376.56 C607.20,375.76 607.40,359.17 606.13,357.17 C605.46,356.11 599.85,355.85 579.01,355.91 C563.04,355.95 552.25,356.37 551.52,356.98 C550.10,358.16 549.58,452.79 550.99,454.49 C552.26,456.02 605.21,455.27 606.21,453.70 ZM 721.17 354.35 C724.87,351.00 722.17,345.00 716.97,345.00 C713.72,345.00 711.75,347.08 711.75,350.50 C711.75,355.64 717.26,357.89 721.17,354.35 ZM 691.69 318.83 C696.05,314.73 693.90,309.67 687.81,309.67 C682.42,309.67 680.31,314.81 684.04,318.81 C686.62,321.58 688.75,321.58 691.69,318.83 ZM 657.44 288.78 C660.68,284.15 658.82,280.00 653.50,280.00 C649.68,280.00 648.00,281.56 648.00,285.13 C648.00,290.64 654.41,293.11 657.44,288.78 ZM 600.27 773.94 C589.36,771.74 580.12,768.84 578.73,767.18 C577.74,765.98 578.26,765.84 582.03,766.24 C586.59,766.73 598.92,769.51 611.50,772.89 L 618.50 774.76 L 613.27 775.13 C610.39,775.33 604.54,774.80 600.27,773.94 ZM 610.00 760.61 C610.00,759.70 613.28,754.43 624.10,738.00 C630.43,728.38 637.08,718.17 638.86,715.33 C643.95,707.23 647.36,705.54 643.47,713.05 C642.64,714.67 642.18,716.00 642.46,716.00 C642.75,716.00 641.12,719.04 638.84,722.75 C634.93,729.12 633.77,731.15 627.39,742.75 C625.95,745.36 624.42,747.72 623.99,748.00 C623.56,748.28 621.13,751.31 618.60,754.75 C615.62,758.80 613.30,761.00 612.00,761.00 C610.90,761.00 610.00,760.83 610.00,760.61 ZM 539.72 757.65 L 536.93 755.37 L 539.00 753.50 C541.04,751.65 541.12,751.67 543.71,754.25 C545.92,756.47 546.14,757.13 545.05,758.44 C543.39,760.44 543.06,760.39 539.72,757.65 ZM 624.00 757.17 C624.00,756.54 626.08,752.31 628.63,747.76 C631.18,743.22 633.77,738.58 634.38,737.46 C636.01,734.49 642.41,727.10 641.09,729.71 C640.48,730.92 640.05,732.27 640.15,732.71 C640.33,733.54 638.76,737.10 636.71,740.50 C628.33,754.40 624.00,760.08 624.00,757.17 ZM 598.00 753.55 C598.00,752.33 599.20,752.00 603.58,752.00 C610.93,752.00 610.58,754.37 603.17,754.80 C599.03,755.04 598.00,754.79 598.00,753.55 ZM 513.59 752.37 C513.07,751.01 513.48,750.85 516.11,751.37 C517.84,751.72 519.67,752.00 520.18,752.00 C520.70,752.00 520.84,752.45 520.50,753.00 C519.48,754.64 514.28,754.17 513.59,752.37 ZM 589.67 747.33 C588.32,745.98 589.08,745.21 592.25,744.69 C600.45,743.36 608.25,741.08 609.99,739.51 C611.81,737.87 611.87,737.90 611.62,740.31 C611.47,741.69 610.59,743.98 609.65,745.41 C608.04,747.87 607.52,748.00 599.14,748.00 C594.30,748.00 590.03,747.70 589.67,747.33 ZM 534.43 739.73 C530.62,736.28 526.36,732.35 524.96,730.98 C523.56,729.62 517.28,723.78 511.01,718.00 C504.73,712.22 497.10,705.17 494.05,702.32 L 488.50 697.15 L 506.00 679.50 C524.86,660.47 541.95,645.00 544.10,645.00 C544.83,645.00 547.47,646.97 549.97,649.38 C552.46,651.79 556.97,655.41 560.00,657.43 C571.96,665.43 588.00,681.60 588.00,685.66 C588.00,687.15 581.29,695.71 570.49,708.00 C567.35,711.58 561.15,719.90 556.72,726.50 C548.11,739.31 543.07,746.00 542.02,746.00 C541.66,746.00 538.25,743.18 534.43,739.73 ZM 549.45 744.93 C549.09,744.34 549.67,742.87 550.75,741.68 C551.83,740.48 555.65,735.00 559.25,729.50 C562.85,724.00 567.30,717.66 569.15,715.41 C573.77,709.76 587.74,693.07 590.53,689.85 C591.80,688.40 595.23,686.31 598.17,685.21 C601.10,684.11 606.52,681.83 610.22,680.13 C620.56,675.39 628.83,672.00 630.04,672.00 C631.67,672.00 630.48,674.88 624.80,684.69 C621.99,689.54 618.16,696.88 616.27,701.00 C608.81,717.31 606.92,720.67 602.71,725.19 C600.30,727.77 597.02,730.18 595.41,730.56 C591.20,731.54 573.85,736.97 571.50,738.04 C568.35,739.49 551.04,745.98 550.31,746.00 C550.20,746.00 549.82,745.52 549.45,744.93 ZM 485.15 737.47 L 481.81 736.02 L 483.89 732.76 C485.04,730.97 486.47,728.26 487.09,726.75 C487.70,725.24 488.71,724.00 489.35,724.00 C491.20,724.00 507.47,733.75 509.57,736.12 C511.48,738.27 511.48,738.28 509.47,737.23 C507.50,736.20 493.54,733.92 490.18,734.08 C489.25,734.13 490.22,734.96 492.32,735.94 L 496.13 737.72 L 492.94 738.36 C488.91,739.17 489.13,739.19 485.15,737.47 ZM 518.39 735.87 C515.15,734.15 512.28,732.41 512.00,732.02 C511.73,731.62 511.02,731.12 510.42,730.90 C506.55,729.46 481.02,714.30 481.01,713.43 C480.99,711.86 487.95,704.00 489.36,704.00 C490.89,704.00 526.87,738.90 525.39,738.96 C524.78,738.98 521.63,737.59 518.39,735.87 ZM 601.81 736.75 C601.59,735.32 603.31,731.78 606.52,727.00 C609.30,722.88 616.16,710.24 621.77,698.92 C627.38,687.60 632.76,677.65 633.73,676.81 C636.16,674.71 641.82,672.91 642.51,674.01 C643.29,675.27 631.28,697.23 622.59,710.45 C618.59,716.53 613.86,724.20 612.08,727.50 C608.93,733.33 604.39,739.00 602.88,739.00 C602.47,739.00 601.99,737.99 601.81,736.75 ZM 636.95 694.75 C639.03,690.17 640.38,688.41 642.00,688.17 C643.65,687.92 644.01,688.18 643.39,689.17 C642.93,689.90 642.48,691.03 642.38,691.68 C642.12,693.36 639.00,697.32 636.37,699.31 C634.21,700.94 634.23,700.76 636.95,694.75 ZM 242.08 587.74 C229.25,581.25 217.53,564.77 211.95,545.38 C210.30,539.63 209.97,535.46 209.97,520.00 C209.97,499.26 210.92,492.34 216.06,475.50 C217.23,471.65 218.45,467.38 218.76,466.02 C219.07,464.65 219.92,462.93 220.66,462.20 C221.78,461.08 222.00,462.02 222.00,467.93 C222.00,471.82 222.41,475.00 222.91,475.00 C223.42,475.00 223.88,482.30 223.95,491.46 C224.16,518.30 225.67,530.28 231.49,550.98 C234.38,561.23 240.51,575.85 244.95,583.08 C249.61,590.65 249.19,591.33 242.08,587.74 ZM 240.71 564.75 C236.82,556.39 232.30,539.80 230.29,526.50 C228.44,514.25 227.39,488.05 228.81,489.50 C229.35,490.05 231.16,494.55 232.82,499.50 C235.19,506.55 235.99,511.10 236.54,520.50 C236.92,527.10 238.34,538.58 239.68,546.00 C242.24,560.13 243.29,568.00 242.62,568.00 C242.41,568.00 241.55,566.54 240.71,564.75 ZM 246.67 544.33 C245.50,543.17 245.96,526.93 247.51,514.50 C251.05,486.06 257.74,465.30 270.38,443.50 C272.62,439.65 275.13,435.31 275.97,433.85 C276.81,432.39 280.10,426.18 283.28,420.06 C286.46,413.93 289.49,409.19 290.03,409.52 C292.80,411.23 289.62,441.19 284.87,458.00 C281.98,468.26 273.08,489.01 266.00,502.00 C259.02,514.82 252.19,532.14 250.44,541.47 C249.83,544.74 248.26,545.93 246.67,544.33 ZM 240.04 509.25 C240.05,507.74 240.67,505.41 241.41,504.09 C242.74,501.69 242.75,501.70 243.17,505.34 C243.41,507.35 243.24,509.00 242.80,509.00 C242.36,509.00 242.00,509.67 242.00,510.50 C242.00,511.33 241.55,512.00 241.00,512.00 C240.45,512.00 240.02,510.76 240.04,509.25 ZM 236.21 496.36 C234.09,492.32 231.00,477.67 229.99,466.88 C228.50,450.82 231.43,416.68 235.01,408.50 C235.49,407.40 236.17,404.92 236.53,403.00 C237.33,398.66 245.71,370.23 246.99,367.50 C247.51,366.40 250.24,358.30 253.07,349.50 C255.90,340.70 258.70,332.18 259.30,330.57 L 260.39 327.64 L 261.18 330.57 C261.61,332.18 261.72,334.29 261.42,335.25 C261.11,336.21 261.23,337.00 261.68,337.00 C263.38,337.00 261.44,363.71 257.96,388.00 C254.78,410.25 253.94,415.67 253.48,416.90 C253.19,417.66 252.53,421.04 252.01,424.40 C251.50,427.75 250.12,435.90 248.95,442.50 C247.79,449.10 246.45,456.75 245.97,459.50 C240.31,492.32 239.59,495.81 238.17,497.23 C237.52,497.88 236.85,497.58 236.21,496.36 ZM 425.82 550.36 C425.65,549.46 425.64,542.04 425.80,533.86 C426.08,519.86 426.21,519.00 428.06,519.00 C429.15,519.00 431.64,520.48 433.61,522.28 C436.86,525.26 437.25,526.18 437.72,532.12 C438.32,539.55 436.99,543.37 431.95,548.75 C428.61,552.31 426.33,552.91 425.82,550.36 ZM 638.25 540.97 C637.01,540.47 636.00,539.76 636.00,539.38 C636.00,538.65 641.93,516.36 644.69,506.71 C647.09,498.31 648.72,499.38 652.01,511.50 C653.50,517.00 655.40,523.30 656.24,525.50 C659.06,532.93 660.27,537.84 659.67,539.43 C659.19,540.68 657.42,541.00 651.11,541.00 C646.74,541.00 642.56,541.20 641.83,541.44 C641.10,541.68 639.49,541.47 638.25,540.97 ZM 496.00 386.50 L 496.00 379.00 L 498.98 379.00 C501.34,379.00 502.09,379.53 502.60,381.55 C503.54,385.27 502.31,391.30 500.33,392.75 C496.72,395.39 496.00,394.35 496.00,386.50 Z" fill="rgba(253,248,225,1)"/>
</g>
</svg>